<?xml version="1.0" encoding="UTF-8"?>
<svg width="162px" height="37px" viewBox="0 0 162 37" version="1.1" xmlns="http://www.w3.org/2000/svg" xmlns:xlink="http://www.w3.org/1999/xlink">
    <!-- Generator: Sketch 48.2 (47327) - http://www.bohemiancoding.com/sketch -->
    <title>Logo</title>
    <desc>Created with Sketch.</desc>
    <defs></defs>
    <g id="Startsida" stroke="none" stroke-width="1" fill="none" fill-rule="evenodd">
        <g id="Logo" transform="translate(0.000000, -0.270508)" fill="#1D1D1B">
            <path d="M21.0676732,20.9479326 L34.0827754,20.9479326 C33.5108402,17.9970865 31.1101968,16.2044224 27.6006672,16.1333943 C23.6368758,16.1344544 21.6655813,17.579929 21.0676732,20.9479326 Z M39.8482419,36.8513336 L27.6017273,36.8513336 C21.9942187,36.8513336 15.3085673,34.5747244 15.3085673,23.7307495 C15.3085673,12.8507304 21.9942187,10.5682905 27.6017273,10.5682905 C33.1875034,10.5682905 39.8482419,12.8507304 39.8482419,23.7307495 L39.8482419,26.5199271 L21.0676732,26.5199271 C21.6613408,29.8529467 23.6326353,31.2814593 27.6017273,31.2814593 L39.8482419,31.2814593 L39.8482419,36.8513336 Z" id="Fill-1"></path>
            <path d="M66.2094689,36.8857346 L60.6417149,36.8857346 L60.6417149,34.1029176 C60.6417149,29.4415668 59.5248777,26.5532679 53.9645445,26.5532679 L50.0982842,26.5532679 L50.0982842,36.8857346 L44.5315903,36.8857346 L44.5315903,0.529954351 L50.0982842,0.529954351 L50.0982842,20.9823335 L53.6804321,20.9823335 C59.2349347,20.9823335 60.3523019,18.0749524 60.3523019,13.3844482 L60.3523019,10.5973908 L65.9184658,10.5973908 L65.9184658,13.3844482 C65.9184658,17.9885525 64.7247699,21.4275842 62.3686516,23.6119629 C64.9177118,25.8228447 66.2094689,29.3509265 66.2094689,34.1029176 L66.2094689,36.8857346 Z" id="Fill-3"></path>
            <path d="M126.494029,25.9033079 C125.016221,26.3591598 123.332219,26.580725 121.365165,26.580725 C116.290897,26.580725 116.290897,28.0569431 116.290897,28.9368433 C116.290897,29.8967826 116.290897,31.3480879 121.365165,31.3480879 C126.494029,31.3480879 126.494029,29.8967826 126.494029,28.9368433 L126.494029,25.9033079 Z M121.365165,36.9200825 C112.10236,36.9200825 110.717843,31.9189629 110.717843,28.9368433 C110.717843,25.9594943 112.10236,20.9636753 121.365165,20.9636753 C126.494029,20.9636753 126.494029,19.4848069 126.494029,18.5990761 C126.494029,17.6423171 126.494029,16.1957824 121.365165,16.1957824 C116.290897,16.1957824 116.290897,17.6423171 116.290897,18.5990761 L116.290897,18.861986 L110.717843,18.861986 L110.717843,18.5990761 C110.717843,15.6227871 112.10236,10.6280283 121.365165,10.6280283 C130.670905,10.6280283 132.059663,15.6227871 132.059663,18.5990761 L132.059663,28.9368433 C132.059663,31.9189629 130.670905,36.9200825 121.365165,36.9200825 Z" id="Fill-5"></path>
            <path d="M141.377647,36.872271 L135.803002,36.872271 L135.803002,20.2103536 C135.803002,15.8172133 138.079612,10.5818071 148.923586,10.5818071 L149.186496,10.5818071 L149.186496,16.1522114 L148.923586,16.1522114 C142.292531,16.1522114 141.377647,18.1033636 141.377647,20.2103536 L141.377647,36.872271 Z" id="Fill-7"></path>
            <path d="M13.4337968,36.8730661 L13.1708869,36.8730661 C2.28556728,36.8730661 -5.30060363e-05,31.665223 -5.30060363e-05,27.2969956 L-5.30060363e-05,0.609516412 L5.57353171,0.609516412 L5.57353171,27.2969956 C5.57353171,29.3748322 6.49371651,31.2989513 13.1708869,31.2989513 L13.4337968,31.2989513 L13.4337968,36.8730661 Z" id="Fill-9"></path>
            <path d="M109.99643,36.8730661 L109.735111,36.8730661 C98.8540315,36.8730661 96.5700014,31.665223 96.5700014,27.2969956 L96.5700014,0.536368082 L102.137755,0.536368082 L102.137755,27.2969956 C102.137755,29.3748322 103.05847,31.2989513 109.735111,31.2989513 L109.99643,31.2989513 L109.99643,36.8730661 Z" id="Fill-12"></path>
            <path d="M81.2742615,16.227586 C75.7155185,16.227586 74.5992114,19.133907 74.5992114,23.8270614 C74.5992114,28.486292 75.7155185,31.3756511 81.2742615,31.3756511 C86.8298242,31.3756511 87.9461313,28.486292 87.9461313,23.8270614 C87.9461313,19.133907 86.8298242,16.227586 81.2742615,16.227586 M81.2742615,36.9465855 C75.6635726,36.9465855 68.975801,34.6699762 68.975801,23.8270614 C68.975801,12.9417418 75.6635726,10.6577117 81.2742615,10.6577117 C86.8600376,10.6577117 93.5186559,12.9417418 93.5186559,23.8270614 C93.5186559,34.6699762 86.8600376,36.9465855 81.2742615,36.9465855" id="Fill-14"></path>
            <path d="M157.170266,5.00573105 C157.698736,5.00573105 158.061297,4.91509073 158.061297,4.320363 C158.061297,3.79136276 157.493072,3.72616534 157.053122,3.72616534 L156.265453,3.72616534 L156.265453,5.00573105 L157.170266,5.00573105 Z M155.153916,2.87382827 L157.104538,2.87382827 C158.422798,2.87382827 159.171243,3.26183246 159.171243,4.42425483 C159.171243,5.36776228 158.603549,5.74251496 157.802098,5.80718232 L159.171243,8.05569838 L158.035324,8.05569838 L156.794453,5.85912824 L156.265453,5.85912824 L156.265453,8.05569838 L155.153916,8.05569838 L155.153916,2.87382827 Z M157.026619,9.11475899 C158.87547,9.11475899 160.347977,7.64172124 160.347977,5.4838455 C160.347977,3.33922127 158.87547,1.85346207 157.026619,1.85346207 C155.153916,1.85346207 153.706851,3.33922127 153.706851,5.4838455 C153.706851,7.64172124 155.153916,9.11475899 157.026619,9.11475899 Z M157.026619,0.819314304 C159.598472,0.819314304 161.69115,2.91252268 161.69115,5.4838455 C161.69115,8.05569838 159.598472,10.1478466 157.026619,10.1478466 C154.456357,10.1478466 152.363148,8.05569838 152.363148,5.4838455 C152.363148,2.91252268 154.456357,0.819314304 157.026619,0.819314304 Z" id="Fill-17"></path>
        </g>
    </g>
</svg>